<svg width="210" height="374" viewBox="0 0 210 374" fill="none" xmlns="http://www.w3.org/2000/svg">
<path d="M102.281 323.471C98.6654 312.753 95.0503 302.035 87.3802 275.019C79.7101 248.003 68.0945 205.014 61.8614 181.142C54.7778 154.012 54.0327 147.874 52.8045 139.947C49.055 115.745 50.1623 103.885 50.1617 95.5502C50.1611 88.6218 51.1559 80.2771 55.9059 65.1547C57.4335 60.291 59.7126 57.7615 61.8767 55.5655C64.3128 53.0935 67.991 51.7642 71.9962 50.3821C76.112 48.9619 84.4574 51.5031 95.0609 56.0574C102.281 59.1586 109.139 65.4711 116.73 73.0349C122.091 78.377 126.424 89.4063 132.096 102.564C136.148 111.963 139.773 125.634 144.864 143.359C149.401 159.153 150.278 172.727 153.262 182.56C156.575 193.478 158.223 208.183 159.211 223.042C159.937 233.966 157.53 243.327 156.002 251.077C154.928 256.525 150.214 274.564 142.251 299.437C138.699 310.53 135.35 313.805 132.579 316.533C130.344 318.732 127.122 317.997 124.044 317.494C118.305 316.555 111.194 305.961 99.0349 274.985C95.4074 265.744 94.2757 254.646 92.9734 243.478C91.671 232.311 91.1246 220.823 91.1548 209.909C91.1851 198.994 91.8086 189.001 92.3312 177.543C94.116 138.416 95.061 130.665 95.63 124.039C96.3663 115.465 96.2954 109.725 95.6005 102.671C94.0604 96.4202 91.2833 92.1536 88.6846 89.4229C87.5067 88.2733 86.6149 87.6028 84.9357 86.6511" stroke="#D3E0B4" stroke-width="100" stroke-linecap="round"/>
</svg>
