<svg width="246" height="247" viewBox="0 0 246 247" fill="none" xmlns="http://www.w3.org/2000/svg">
<g clip-path="url(#clip0_1780_19)">
<path d="M166.412 103.081C165.843 103.346 165.275 103.627 164.727 103.915C164.697 103.838 164.668 103.766 164.638 103.69C165.206 103.457 165.782 103.204 166.347 102.941C188.48 92.6204 197.636 65.3979 186.809 42.1228C175.937 18.8637 149.198 8.37971 127.065 18.7003C126.491 18.9678 125.924 19.2483 125.371 19.538C124.79 19.7773 124.214 20.0296 123.641 20.2971C102.412 30.1963 93.1213 55.634 101.952 78.2373C102.063 78.5317 102.181 78.8176 102.3 79.1079C102.155 78.8298 102.009 78.5516 101.855 78.2775C90.2184 56.9876 64.7559 47.7553 43.5269 57.6544C42.9533 57.9219 42.3901 58.2004 41.833 58.4921C41.2558 58.7294 40.6761 58.9838 40.1025 59.2512C17.9696 69.5719 8.81298 96.7942 19.6418 120.074C30.512 143.328 57.2512 153.813 79.3842 143.492C79.9577 143.224 80.5253 142.944 81.078 142.654C81.1172 142.636 81.1539 142.624 81.193 142.606C81.23 142.674 81.267 142.742 81.304 142.81C81.2605 142.83 81.2234 142.853 81.18 142.873C80.6028 143.11 80.023 143.364 79.4494 143.632C57.3165 153.952 48.1599 181.175 58.9888 204.454C69.859 227.709 96.5982 238.193 118.731 227.872C119.305 227.605 119.872 227.324 120.425 227.035C121.007 226.795 121.582 226.543 122.156 226.276C143.658 216.249 152.917 190.278 143.502 167.467C154.925 189.341 180.767 198.945 202.269 188.918C202.843 188.651 203.406 188.372 203.963 188.081C204.54 187.843 205.12 187.589 205.694 187.322C227.827 177.001 236.983 149.779 226.156 126.504C215.284 103.244 188.545 92.7603 166.412 103.081ZM153.789 107.178C160.767 124.083 153.905 143.326 137.974 150.755C137.548 150.953 137.122 151.141 136.691 151.316C136.279 151.534 135.857 151.742 135.436 151.938C119.035 159.586 99.2187 151.819 91.1623 134.588C83.1386 117.335 89.9269 97.1629 106.328 89.5152C106.749 89.3186 107.179 89.1288 107.609 88.9497C108.022 88.7357 108.44 88.5303 108.866 88.3318C124.797 80.9028 143.949 88.0158 152.415 104.231C152.62 104.727 152.835 105.223 153.067 105.721C153.298 106.215 153.539 106.699 153.789 107.178Z" fill="#A99888"/>
</g>
<defs>
<clipPath id="clip0_1780_19">
<rect width="184.449" height="186.053" fill="white" transform="translate(0 77.9512) rotate(-24.9998)"/>
</clipPath>
</defs>
</svg>
